<?xml version="1.0" standalone="no"?>
<!DOCTYPE svg PUBLIC "-//W3C//DTD SVG 1.1//EN" "http://www.w3.org/Graphics/SVG/1.1/DTD/svg11.dtd">
<svg xmlns="http://www.w3.org/2000/svg" xmlns:xlink="http://www.w3.org/1999/xlink" width="1024.5" zoomAndPan="magnify" viewBox="0 0 1024.5 534.000001" height="534" preserveAspectRatio="xMidYMid meet" version="1.0"><defs><filter x="0%" y="0%" width="100%" height="100%" id="ae76a98ea6"><feColorMatrix values="0 0 0 0 1 0 0 0 0 1 0 0 0 0 1 0 0 0 1 0" color-interpolation-filters="sRGB"/></filter><clipPath id="37d9d9c9fb"><path d="M 0.707031 0 L 1023.292969 0 L 1023.292969 533 L 0.707031 533 Z M 0.707031 0 " clip-rule="nonzero"/></clipPath><clipPath id="8a67cebc8f"><path d="M 793 0.105469 L 1022.933594 0.105469 L 1022.933594 533 L 793 533 Z M 793 0.105469 " clip-rule="nonzero"/></clipPath><clipPath id="f092d4fb48"><path d="M 774 0.105469 L 1022.933594 0.105469 L 1022.933594 350 L 774 350 Z M 774 0.105469 " clip-rule="nonzero"/></clipPath><clipPath id="73847936be"><path d="M 857 0.105469 L 1022.933594 0.105469 L 1022.933594 533 L 857 533 Z M 857 0.105469 " clip-rule="nonzero"/></clipPath><mask id="c76ebe50e9"><g filter="url(#ae76a98ea6)"><rect x="-102.45" width="1229.4" fill="#000000" y="-53.4" height="640.800002" fill-opacity="0.42"/></g></mask><clipPath id="4eee09181d"><path d="M 1 0.105469 L 165.933594 0.105469 L 165.933594 533 L 1 533 Z M 1 0.105469 " clip-rule="nonzero"/></clipPath><clipPath id="299ea4b5df"><rect x="0" width="166" y="0" height="533"/></clipPath><clipPath id="81b6773846"><path d="M 887 0.105469 L 1022.933594 0.105469 L 1022.933594 433 L 887 433 Z M 887 0.105469 " clip-rule="nonzero"/></clipPath><mask id="4d339664b7"><g filter="url(#ae76a98ea6)"><rect x="-102.45" width="1229.4" fill="#000000" y="-53.4" height="640.800002" fill-opacity="0.42"/></g></mask><clipPath id="9118f4397f"><path d="M 0.289062 0.105469 L 135.933594 0.105469 L 135.933594 432 L 0.289062 432 Z M 0.289062 0.105469 " clip-rule="nonzero"/></clipPath><clipPath id="345e04e63d"><rect x="0" width="136" y="0" height="433"/></clipPath><clipPath id="b4dd41d5cb"><path d="M 0.707031 0 L 496 0 L 496 321 L 0.707031 321 Z M 0.707031 0 " clip-rule="nonzero"/></clipPath><mask id="e1b41a1f5e"><g filter="url(#ae76a98ea6)"><rect x="-102.45" width="1229.4" fill="#000000" y="-53.4" height="640.800002" fill-opacity="0.41"/></g></mask><clipPath id="f391345521"><path d="M 0.707031 0 L 209 0 L 209 7 L 0.707031 7 Z M 0.707031 0 " clip-rule="nonzero"/></clipPath><clipPath id="ad60dfedb5"><path d="M 0.707031 0 L 218 0 L 218 17 L 0.707031 17 Z M 0.707031 0 " clip-rule="nonzero"/></clipPath><clipPath id="b14a500d10"><path d="M 0.707031 0 L 226 0 L 226 27 L 0.707031 27 Z M 0.707031 0 " clip-rule="nonzero"/></clipPath><clipPath id="a256e13dd5"><path d="M 0.707031 0 L 235 0 L 235 36 L 0.707031 36 Z M 0.707031 0 " clip-rule="nonzero"/></clipPath><clipPath id="a180fda041"><path d="M 0.707031 0 L 244 0 L 244 46 L 0.707031 46 Z M 0.707031 0 " clip-rule="nonzero"/></clipPath><clipPath id="383650e7df"><path d="M 0.707031 0 L 252 0 L 252 56 L 0.707031 56 Z M 0.707031 0 " clip-rule="nonzero"/></clipPath><clipPath id="6a385a96dd"><path d="M 0.707031 0 L 261 0 L 261 65 L 0.707031 65 Z M 0.707031 0 " clip-rule="nonzero"/></clipPath><clipPath id="f007e7f8c9"><path d="M 0.707031 0 L 270 0 L 270 75 L 0.707031 75 Z M 0.707031 0 " clip-rule="nonzero"/></clipPath><clipPath id="3ce013e48d"><path d="M 0.707031 0 L 278 0 L 278 85 L 0.707031 85 Z M 0.707031 0 " clip-rule="nonzero"/></clipPath><clipPath id="d8d61f6df0"><path d="M 0.707031 0 L 287 0 L 287 94 L 0.707031 94 Z M 0.707031 0 " clip-rule="nonzero"/></clipPath><clipPath id="079faf4357"><path d="M 0.707031 0 L 296 0 L 296 104 L 0.707031 104 Z M 0.707031 0 " clip-rule="nonzero"/></clipPath><clipPath id="dd32e90efa"><path d="M 0.707031 0 L 304 0 L 304 113 L 0.707031 113 Z M 0.707031 0 " clip-rule="nonzero"/></clipPath><clipPath id="d03c915f01"><path d="M 0.707031 0 L 313 0 L 313 123 L 0.707031 123 Z M 0.707031 0 " clip-rule="nonzero"/></clipPath><clipPath id="ce784fcc6e"><path d="M 0.707031 0 L 322 0 L 322 132 L 0.707031 132 Z M 0.707031 0 " clip-rule="nonzero"/></clipPath><clipPath id="4f19fe22fa"><path d="M 0.707031 0 L 330 0 L 330 142 L 0.707031 142 Z M 0.707031 0 " clip-rule="nonzero"/></clipPath><clipPath id="c525efe8a6"><path d="M 0.707031 0 L 339 0 L 339 151 L 0.707031 151 Z M 0.707031 0 " clip-rule="nonzero"/></clipPath><clipPath id="22d0861d2a"><path d="M 0.707031 0 L 348 0 L 348 160 L 0.707031 160 Z M 0.707031 0 " clip-rule="nonzero"/></clipPath><clipPath id="d85beca539"><path d="M 0.707031 0 L 356 0 L 356 170 L 0.707031 170 Z M 0.707031 0 " clip-rule="nonzero"/></clipPath><clipPath id="6e4810e270"><path d="M 0.707031 0 L 365 0 L 365 179 L 0.707031 179 Z M 0.707031 0 " clip-rule="nonzero"/></clipPath><clipPath id="4e79d0e18f"><path d="M 0.707031 0 L 374 0 L 374 189 L 0.707031 189 Z M 0.707031 0 " clip-rule="nonzero"/></clipPath><clipPath id="dad4ed151a"><path d="M 0.707031 0 L 382 0 L 382 198 L 0.707031 198 Z M 0.707031 0 " clip-rule="nonzero"/></clipPath><clipPath id="a5bbfe90c5"><path d="M 0.707031 0 L 391 0 L 391 207 L 0.707031 207 Z M 0.707031 0 " clip-rule="nonzero"/></clipPath><clipPath id="28ce728c52"><path d="M 0.707031 0 L 400 0 L 400 217 L 0.707031 217 Z M 0.707031 0 " clip-rule="nonzero"/></clipPath><clipPath id="fa962c4cac"><path d="M 0.707031 0 L 408 0 L 408 226 L 0.707031 226 Z M 0.707031 0 " clip-rule="nonzero"/></clipPath><clipPath id="9c428b4eb5"><path d="M 0.707031 0 L 417 0 L 417 236 L 0.707031 236 Z M 0.707031 0 " clip-rule="nonzero"/></clipPath><clipPath id="100aeebebb"><path d="M 0.707031 0 L 426 0 L 426 245 L 0.707031 245 Z M 0.707031 0 " clip-rule="nonzero"/></clipPath><clipPath id="882bb805c9"><path d="M 0.707031 0 L 434 0 L 434 254 L 0.707031 254 Z M 0.707031 0 " clip-rule="nonzero"/></clipPath><clipPath id="dcec392e21"><path d="M 0.707031 0 L 443 0 L 443 264 L 0.707031 264 Z M 0.707031 0 " clip-rule="nonzero"/></clipPath><clipPath id="403d93dccf"><path d="M 0.707031 0 L 452 0 L 452 273 L 0.707031 273 Z M 0.707031 0 " clip-rule="nonzero"/></clipPath><clipPath id="93bf58844b"><path d="M 0.707031 0 L 460 0 L 460 283 L 0.707031 283 Z M 0.707031 0 " clip-rule="nonzero"/></clipPath><clipPath id="c9b4fef6e4"><path d="M 0.707031 0 L 469 0 L 469 292 L 0.707031 292 Z M 0.707031 0 " clip-rule="nonzero"/></clipPath><clipPath id="40982f7501"><path d="M 0.707031 0 L 478 0 L 478 301 L 0.707031 301 Z M 0.707031 0 " clip-rule="nonzero"/></clipPath><clipPath id="7342f22536"><path d="M 0.707031 0 L 487 0 L 487 311 L 0.707031 311 Z M 0.707031 0 " clip-rule="nonzero"/></clipPath><clipPath id="37172c1cb7"><path d="M 0.707031 0 L 494.78125 0 L 494.78125 319.800781 L 0.707031 319.800781 Z M 0.707031 0 " clip-rule="nonzero"/></clipPath><clipPath id="28d024a1e4"><rect x="0" width="496" y="0" height="321"/></clipPath></defs><g clip-path="url(#37d9d9c9fb)"><path fill="#ffffff" d="M 0.707031 0 L 1023.292969 0 L 1023.292969 533 L 0.707031 533 Z M 0.707031 0 " fill-opacity="1" fill-rule="nonzero"/><path fill="#ffffff" d="M 0.707031 0 L 1023.292969 0 L 1023.292969 533 L 0.707031 533 Z M 0.707031 0 " fill-opacity="1" fill-rule="nonzero"/></g><g clip-path="url(#8a67cebc8f)"><path fill="#e3e3e3" d="M 832.453125 536.808594 C 719.003906 344.453125 886.515625 161.84375 930.855469 103.359375 C 975.191406 44.871094 990.21875 0.0429688 990.21875 0.0429688 L 1023.285156 0.0429688 L 1023.285156 536.808594 Z M 832.453125 536.808594 " fill-opacity="1" fill-rule="nonzero"/></g><g clip-path="url(#f092d4fb48)"><path fill="#e7ad70" d="M 1023.285156 349.324219 C 930.445312 349.324219 915.394531 221.511719 915.394531 142.5625 C 915.394531 63.617188 786.636719 0.0429688 774.417969 0.0429688 L 1023.285156 0.0429688 Z M 1023.285156 349.324219 " fill-opacity="1" fill-rule="nonzero"/></g><g clip-path="url(#73847936be)"><g mask="url(#c76ebe50e9)"><g transform="matrix(1, 0, 0, 1, 857, 0.000000000000043449)"><g clip-path="url(#299ea4b5df)"><g clip-path="url(#4eee09181d)"><path fill="#082856" d="M 30.527344 536.808594 C 126.886719 454.832031 9.636719 385.738281 1.453125 293.007812 C -6.726562 200.296875 106.898438 0.0429688 106.898438 0.0429688 L 166.285156 0.0429688 L 166.285156 536.808594 Z M 30.527344 536.808594 " fill-opacity="1" fill-rule="nonzero"/></g></g></g></g></g><g clip-path="url(#81b6773846)"><g mask="url(#4d339664b7)"><g transform="matrix(1, 0, 0, 1, 887, 0.000000000000043449)"><g clip-path="url(#345e04e63d)"><g clip-path="url(#9118f4397f)"><path fill="#082856" d="M 136.285156 422.625 C 136.285156 422.625 59.226562 456.464844 11.863281 394.433594 C -35.5 332.40625 81.042969 167.941406 78.207031 109.671875 C 75.394531 51.398438 0.527344 0.0429688 0.527344 0.0429688 L 136.285156 0.0429688 Z M 136.285156 422.625 " fill-opacity="1" fill-rule="nonzero"/></g></g></g></g></g><g clip-path="url(#b4dd41d5cb)"><g mask="url(#e1b41a1f5e)"><g transform="matrix(1, 0, 0, 1, 0, 0.000000000000043449)"><g clip-path="url(#28d024a1e4)"><g clip-path="url(#f391345521)"><path fill="#9fc1b1" d="M 148.460938 -52.230469 C 167.175781 -65.398438 181.671875 -79.722656 191.546875 -94.804688 C 208.851562 -121.226562 211.90625 -149.761719 200.628906 -179.613281 C 198.160156 -186.140625 195.019531 -192.542969 191.164062 -198.882812 C 191.890625 -198.601562 192.617188 -198.316406 193.347656 -198.03125 C 196.8125 -192.140625 199.679688 -186.183594 201.972656 -180.121094 C 213.421875 -149.816406 210.320312 -120.847656 192.75 -94.015625 C 182.773438 -78.785156 168.152344 -64.332031 149.289062 -51.054688 C 132.542969 -39.269531 112.726562 -28.578125 90.394531 -19.273438 C 70.667969 -11.058594 49.101562 -4.046875 28.019531 0.996094 C 18.640625 3.238281 9.488281 5.070312 0.773438 6.457031 L 0.773438 5.007812 C 29.039062 0.484375 61.160156 -8.652344 89.84375 -20.601562 C 112.078125 -29.867188 131.800781 -40.507812 148.464844 -52.234375 Z M 148.460938 -52.230469 " fill-opacity="1" fill-rule="nonzero"/></g><g clip-path="url(#ad60dfedb5)"><path fill="#9fc1b1" d="M 155.707031 -44 C 174.984375 -57.496094 189.890625 -72.175781 200.007812 -87.644531 C 217.628906 -114.582031 220.660156 -143.6875 209.03125 -174.152344 C 206.15625 -181.675781 202.390625 -189.046875 197.683594 -196.335938 C 198.417969 -196.046875 199.152344 -195.757812 199.890625 -195.46875 C 204.167969 -188.628906 207.636719 -181.707031 210.332031 -174.648438 C 222.132812 -143.742188 219.054688 -114.214844 201.175781 -86.882812 C 190.960938 -71.269531 175.933594 -56.457031 156.511719 -42.859375 C 139.277344 -30.800781 118.871094 -19.863281 95.863281 -10.359375 C 65.144531 2.332031 30.65625 11.898438 0.773438 16.300781 L 0.773438 14.890625 C 30.496094 10.492188 64.777344 0.972656 95.328125 -11.648438 C 118.246094 -21.117188 138.5625 -32.003906 155.707031 -44.003906 Z M 155.707031 -44 " fill-opacity="1" fill-rule="nonzero"/></g><g clip-path="url(#b14a500d10)"><path fill="#9fc1b1" d="M 162.960938 -35.773438 C 182.804688 -49.589844 198.117188 -64.632812 208.472656 -80.488281 C 226.40625 -107.9375 229.417969 -137.613281 217.429688 -168.6875 C 214.140625 -177.222656 209.710938 -185.5625 204.082031 -193.804688 C 204.824219 -193.511719 205.566406 -193.214844 206.308594 -192.914062 C 211.472656 -185.121094 215.582031 -177.238281 218.691406 -169.175781 C 230.847656 -137.671875 227.789062 -107.582031 209.605469 -79.75 C 199.152344 -63.75 183.71875 -48.582031 163.734375 -34.664062 C 146.019531 -22.328125 125.019531 -11.152344 101.324219 -1.4375 C 68.730469 11.921875 32.070312 21.859375 0.769531 26.105469 L 0.769531 24.738281 C 31.914062 20.5 68.375 10.605469 100.8125 -2.691406 C 124.414062 -12.367188 145.324219 -23.496094 162.960938 -35.773438 Z M 162.960938 -35.773438 " fill-opacity="1" fill-rule="nonzero"/></g><g clip-path="url(#a256e13dd5)"><path fill="#9fc1b1" d="M 106.300781 6.265625 C 130.59375 -3.613281 152.097656 -14.988281 170.21875 -27.542969 C 190.625 -41.683594 206.347656 -57.085938 216.945312 -73.328125 C 235.1875 -101.289062 238.179688 -131.535156 225.835938 -163.222656 C 222.113281 -172.773438 216.992188 -182.078125 210.371094 -191.285156 C 211.121094 -190.984375 211.871094 -190.679688 212.621094 -190.378906 C 218.738281 -181.625 223.519531 -172.773438 227.054688 -163.699219 C 239.5625 -131.59375 236.53125 -100.949219 218.042969 -72.613281 C 207.351562 -56.230469 191.515625 -40.703125 170.964844 -26.46875 C 152.765625 -13.859375 131.179688 -2.4375 106.796875 7.480469 C 85.335938 16.207031 61.875 23.628906 38.953125 28.941406 C 25.582031 32.039062 12.679688 34.371094 0.773438 35.855469 L 0.773438 34.535156 C 12.585938 33.054688 25.390625 30.742188 38.660156 27.664062 C 61.515625 22.371094 84.90625 14.96875 106.304688 6.265625 Z M 106.300781 6.265625 " fill-opacity="1" fill-rule="nonzero"/></g><g clip-path="url(#a180fda041)"><path fill="#9fc1b1" d="M 111.796875 15.222656 C 136.777344 5.132812 158.875 -6.484375 177.480469 -19.316406 C 198.457031 -33.777344 214.585938 -49.542969 225.417969 -66.167969 C 243.976562 -94.644531 246.941406 -125.460938 234.234375 -157.761719 C 230.078125 -168.332031 224.21875 -178.609375 216.535156 -188.785156 C 217.292969 -188.476562 218.054688 -188.167969 218.808594 -187.855469 C 225.949219 -178.140625 231.445312 -168.320312 235.417969 -158.226562 C 248.28125 -125.523438 245.277344 -94.320312 226.484375 -65.476562 C 215.558594 -48.710938 199.3125 -32.828125 178.203125 -18.273438 C 159.519531 -5.390625 137.335938 6.273438 112.273438 16.394531 C 90.230469 25.296875 66.136719 32.855469 42.597656 38.257812 C 27.863281 41.636719 13.691406 44.113281 0.773438 45.582031 L 0.773438 44.304688 C 13.609375 42.839844 27.675781 40.378906 42.316406 37.023438 C 65.789062 31.636719 89.816406 24.097656 111.796875 15.21875 Z M 111.796875 15.222656 " fill-opacity="1" fill-rule="nonzero"/></g><g clip-path="url(#383650e7df)"><path fill="#9fc1b1" d="M 117.292969 24.175781 C 142.960938 13.882812 165.65625 2.015625 184.75 -11.089844 C 206.292969 -25.875 222.828125 -42 233.898438 -59.011719 C 252.761719 -88.003906 255.703125 -119.390625 242.636719 -152.300781 C 238.03125 -163.90625 231.40625 -175.152344 222.589844 -186.296875 C 223.355469 -185.980469 224.121094 -185.660156 224.886719 -185.34375 C 233.113281 -174.664062 239.359375 -163.871094 243.777344 -152.75 C 257 -119.449219 254.019531 -87.6875 234.925781 -58.34375 C 223.765625 -41.191406 207.117188 -24.953125 185.441406 -10.074219 C 166.273438 3.082031 143.5 14.988281 117.75 25.316406 C 95.125 34.390625 70.402344 42.085938 46.242188 47.578125 C 30.121094 51.242188 14.683594 53.847656 0.773438 55.273438 L 0.773438 54.042969 C 14.597656 52.617188 29.945312 50.023438 45.972656 46.382812 C 70.066406 40.90625 94.730469 33.226562 117.292969 24.175781 Z M 117.292969 24.175781 " fill-opacity="1" fill-rule="nonzero"/></g><g clip-path="url(#6a385a96dd)"><path fill="#9fc1b1" d="M 122.792969 33.128906 C 149.152344 22.628906 172.445312 10.515625 192.023438 -2.867188 C 214.132812 -17.976562 231.078125 -34.460938 242.382812 -51.859375 C 261.558594 -81.367188 264.46875 -113.320312 251.039062 -146.84375 C 245.972656 -159.484375 238.546875 -171.703125 228.53125 -183.828125 C 229.308594 -183.503906 230.082031 -183.175781 230.859375 -182.847656 C 240.238281 -171.199219 247.265625 -159.4375 252.136719 -147.28125 C 265.71875 -113.382812 262.769531 -81.0625 243.375 -51.214844 C 231.980469 -33.683594 214.929688 -17.085938 192.691406 -1.890625 C 173.035156 11.542969 149.667969 23.691406 123.230469 34.226562 C 100.023438 43.472656 74.664062 51.308594 49.890625 56.886719 C 32.363281 60.835938 15.644531 63.5625 0.769531 64.925781 L 0.769531 63.738281 C 15.566406 62.375 32.195312 59.660156 49.632812 55.730469 C 74.347656 50.164062 99.644531 42.347656 122.792969 33.125 Z M 122.792969 33.128906 " fill-opacity="1" fill-rule="nonzero"/></g><g clip-path="url(#f007e7f8c9)"><path fill="#9fc1b1" d="M 128.296875 42.082031 C 155.34375 31.375 179.234375 19.019531 199.304688 5.359375 C 221.980469 -10.074219 239.328125 -26.917969 250.871094 -44.703125 C 270.351562 -74.726562 273.234375 -107.25 259.4375 -141.378906 C 253.90625 -155.066406 245.644531 -168.257812 234.367188 -181.359375 C 235.152344 -181.027344 235.933594 -180.695312 236.71875 -180.359375 C 247.320312 -167.734375 255.160156 -155.003906 260.5 -141.804688 C 274.441406 -107.3125 271.527344 -74.433594 251.828125 -44.082031 C 240.203125 -26.167969 222.746094 -9.214844 199.945312 6.304688 C 179.804688 20.011719 155.84375 32.402344 128.71875 43.144531 C 104.929688 52.558594 78.933594 60.535156 53.542969 66.203125 C 34.589844 70.433594 16.585938 73.277344 0.773438 74.558594 L 0.773438 73.410156 C 16.507812 72.132812 34.429688 69.300781 53.292969 65.089844 C 78.628906 59.433594 104.5625 51.476562 128.296875 42.082031 Z M 128.296875 42.082031 " fill-opacity="1" fill-rule="nonzero"/></g><g clip-path="url(#3ce013e48d)"><path fill="#9fc1b1" d="M 133.804688 51.03125 C 161.542969 40.117188 186.03125 27.519531 206.589844 13.582031 C 229.832031 -2.175781 247.589844 -19.378906 259.367188 -37.550781 C 279.15625 -68.089844 282.007812 -101.183594 267.84375 -135.917969 C 261.832031 -150.660156 252.699219 -164.820312 240.089844 -178.917969 C 240.882812 -178.574219 241.675781 -178.234375 242.464844 -177.890625 C 254.355469 -164.277344 263.050781 -150.582031 268.859375 -136.335938 C 283.167969 -101.25 280.285156 -67.8125 260.289062 -36.957031 C 248.429688 -18.660156 230.570312 -1.347656 207.207031 14.488281 C 186.582031 28.472656 162.019531 41.109375 134.207031 52.054688 C 109.832031 61.644531 83.203125 69.753906 57.191406 75.515625 C 36.792969 80.03125 17.492188 82.980469 0.769531 84.152344 L 0.769531 83.050781 C 17.421875 81.878906 36.640625 78.941406 56.953125 74.445312 C 82.910156 68.695312 109.484375 60.601562 133.804688 51.03125 Z M 133.804688 51.03125 " fill-opacity="1" fill-rule="nonzero"/></g><g clip-path="url(#d8d61f6df0)"><path fill="#9fc1b1" d="M 139.316406 59.984375 C 167.75 48.859375 192.835938 36.015625 213.882812 21.804688 C 237.695312 5.722656 255.855469 -11.839844 267.867188 -30.398438 C 287.960938 -61.453125 290.78125 -95.117188 276.246094 -130.457031 C 269.746094 -146.257812 259.714844 -161.386719 245.710938 -176.476562 C 246.511719 -176.125 247.3125 -175.777344 248.113281 -175.421875 C 261.359375 -160.824219 270.933594 -146.15625 277.222656 -130.859375 C 291.898438 -95.179688 289.050781 -61.1875 268.753906 -29.824219 C 256.667969 -11.144531 238.402344 6.519531 214.472656 22.679688 C 193.363281 36.9375 168.207031 49.820312 139.699219 60.96875 C 114.746094 70.730469 87.476562 78.980469 60.847656 84.832031 C 38.980469 89.636719 18.378906 92.675781 0.773438 93.71875 L 0.773438 92.660156 C 18.308594 91.617188 38.832031 88.585938 60.621094 83.800781 C 87.195312 77.964844 114.410156 69.726562 139.316406 59.984375 Z M 139.316406 59.984375 " fill-opacity="1" fill-rule="nonzero"/></g><g clip-path="url(#079faf4357)"><path fill="#9fc1b1" d="M 144.832031 68.933594 C 173.957031 57.605469 199.644531 44.511719 221.175781 30.023438 C 245.558594 13.621094 264.128906 -4.304688 276.371094 -23.25 C 296.769531 -54.816406 299.554688 -89.050781 284.648438 -124.996094 C 277.65625 -141.859375 266.691406 -157.953125 251.234375 -174.046875 C 252.042969 -173.6875 252.851562 -173.328125 253.65625 -172.96875 C 268.316406 -157.375 278.800781 -141.742188 285.585938 -125.382812 C 300.628906 -89.113281 297.816406 -54.5625 277.222656 -22.699219 C 264.90625 -3.636719 246.238281 14.382812 221.742188 30.867188 C 200.148438 45.394531 174.394531 58.523438 145.199219 69.878906 C 119.65625 79.816406 91.75 88.207031 64.5 94.144531 C 41.144531 99.234375 19.226562 102.363281 0.773438 103.25 L 0.773438 102.234375 C 19.160156 101.34375 41.003906 98.222656 64.285156 93.152344 C 91.484375 87.222656 119.335938 78.847656 144.832031 68.933594 Z M 144.832031 68.933594 " fill-opacity="1" fill-rule="nonzero"/></g><g clip-path="url(#dd32e90efa)"><path fill="#9fc1b1" d="M 150.347656 77.882812 C 180.167969 66.34375 206.457031 53.007812 228.476562 38.242188 C 253.425781 21.515625 272.402344 3.230469 284.878906 -16.101562 C 305.582031 -48.1875 308.328125 -82.988281 293.050781 -119.535156 C 284.804688 -139.25 272.035156 -156.175781 256.65625 -171.628906 C 257.46875 -171.261719 258.285156 -170.894531 259.101562 -170.527344 C 275.242188 -153.929688 286.664062 -137.332031 293.945312 -119.910156 C 309.359375 -83.050781 306.582031 -47.945312 285.695312 -15.578125 C 273.148438 3.867188 254.082031 22.246094 229.019531 39.050781 C 206.9375 53.855469 180.585938 67.226562 150.699219 78.789062 C 124.570312 88.898438 96.027344 97.429688 68.152344 103.457031 C 43.289062 108.835938 20.050781 112.042969 0.773438 112.761719 L 0.773438 111.789062 C 19.984375 111.070312 43.152344 107.871094 67.945312 102.507812 C 95.773438 96.488281 124.265625 87.976562 150.347656 77.882812 Z M 150.347656 77.882812 " fill-opacity="1" fill-rule="nonzero"/></g><g clip-path="url(#d03c915f01)"><path fill="#9fc1b1" d="M 71.613281 111.863281 C 100.0625 105.75 129.195312 97.09375 155.867188 86.832031 C 186.382812 75.085938 213.273438 61.503906 235.785156 46.460938 C 261.304688 29.410156 280.683594 10.761719 293.390625 -8.957031 C 314.394531 -41.554688 317.105469 -76.921875 301.449219 -114.074219 C 293.605469 -132.683594 281.070312 -150.347656 263.125 -168.085938 C 262.738281 -168.464844 262.351562 -168.84375 261.96875 -169.21875 C 262.792969 -168.84375 263.613281 -168.46875 264.4375 -168.089844 C 282.117188 -150.484375 294.511719 -132.925781 302.304688 -114.433594 C 318.089844 -76.980469 315.351562 -41.324219 294.171875 -8.453125 C 281.398438 11.375 261.925781 30.109375 236.300781 47.234375 C 213.730469 62.320312 186.78125 75.933594 156.203125 87.703125 C 129.484375 97.984375 100.300781 106.65625 71.804688 112.773438 C 45.519531 118.421875 21.042969 121.691406 1.027344 122.234375 C 0.941406 122.238281 0.855469 122.238281 0.769531 122.242188 L 0.769531 121.3125 C 0.847656 121.308594 0.925781 121.308594 1.003906 121.304688 C 20.964844 120.765625 45.378906 117.5 71.613281 111.863281 Z M 71.613281 111.863281 " fill-opacity="1" fill-rule="nonzero"/></g><g clip-path="url(#ce784fcc6e)"><path fill="#9fc1b1" d="M 75.28125 121.214844 C 104.355469 115.011719 134.132812 106.21875 161.394531 95.777344 C 192.605469 83.824219 220.097656 69.996094 243.097656 54.675781 C 269.183594 37.296875 288.972656 18.292969 301.90625 -1.8125 C 323.214844 -34.929688 325.886719 -70.863281 309.851562 -108.613281 C 301.917969 -127.289062 289.324219 -145.015625 271.34375 -162.804688 C 269.976562 -164.15625 268.59375 -165.496094 267.195312 -166.820312 C 268.027344 -166.4375 268.859375 -166.050781 269.691406 -165.664062 C 270.453125 -164.925781 271.214844 -164.183594 271.972656 -163.4375 C 290.03125 -145.566406 302.6875 -127.746094 310.667969 -108.960938 C 326.824219 -70.921875 324.128906 -34.710938 302.652344 -1.332031 C 289.652344 18.875 269.777344 37.96875 243.589844 55.414062 C 220.53125 70.769531 192.984375 84.628906 161.710938 96.605469 C 134.40625 107.0625 104.582031 115.875 75.460938 122.085938 C 48.613281 127.8125 23.652344 131.113281 3.273438 131.636719 C 2.441406 131.660156 1.605469 131.675781 0.769531 131.691406 L 0.769531 130.804688 C 1.597656 130.789062 2.425781 130.773438 3.25 130.75 C 23.578125 130.230469 48.484375 126.929688 75.277344 121.214844 Z M 75.28125 121.214844 " fill-opacity="1" fill-rule="nonzero"/></g><g clip-path="url(#4f19fe22fa)"><path fill="#9fc1b1" d="M 78.949219 130.570312 C 108.648438 124.277344 139.070312 115.339844 166.921875 104.726562 C 198.832031 92.5625 226.925781 78.488281 250.414062 62.890625 C 277.070312 45.1875 297.265625 25.820312 310.429688 5.328125 C 332.035156 -28.300781 334.667969 -64.800781 318.253906 -103.152344 C 308.113281 -126.84375 291.542969 -146.710938 272.347656 -164.417969 C 273.1875 -164.023438 274.027344 -163.628906 274.863281 -163.234375 C 293.304688 -145.914062 309.175781 -126.503906 319.03125 -103.484375 C 335.5625 -64.859375 332.90625 -28.097656 311.140625 5.785156 C 297.910156 26.375 277.636719 45.824219 250.882812 63.59375 C 227.339844 79.226562 199.191406 93.332031 167.222656 105.511719 C 139.328125 116.144531 108.863281 125.09375 79.121094 131.394531 C 51.714844 137.203125 26.261719 140.539062 5.519531 141.042969 C 3.9375 141.082031 2.355469 141.109375 0.769531 141.128906 L 0.769531 140.285156 C 2.347656 140.261719 3.925781 140.234375 5.5 140.195312 C 26.1875 139.691406 51.585938 136.363281 78.949219 130.566406 Z M 78.949219 130.570312 " fill-opacity="1" fill-rule="nonzero"/></g><g clip-path="url(#c525efe8a6)"><path fill="#9fc1b1" d="M 82.617188 139.921875 C 112.941406 133.535156 144.007812 124.460938 172.453125 113.667969 C 205.0625 101.300781 233.757812 86.976562 257.738281 71.097656 C 284.964844 53.070312 305.5625 33.34375 318.957031 12.464844 C 340.863281 -21.679688 343.453125 -58.742188 326.652344 -97.695312 C 318.539062 -116.511719 305.828125 -134.351562 287.789062 -152.238281 C 284.414062 -155.582031 280.941406 -158.84375 277.394531 -162.03125 C 278.238281 -161.628906 279.082031 -161.226562 279.925781 -160.820312 C 282.789062 -158.203125 285.605469 -155.53125 288.355469 -152.808594 C 306.46875 -134.847656 319.234375 -116.925781 327.390625 -98.011719 C 344.300781 -58.800781 341.6875 -21.484375 319.632812 12.898438 C 306.179688 33.871094 285.503906 53.679688 258.179688 71.765625 C 234.148438 87.675781 205.402344 102.027344 172.738281 114.417969 C 144.253906 125.222656 113.144531 134.3125 82.78125 140.707031 C 54.808594 146.59375 28.867188 149.960938 7.769531 150.445312 C 5.4375 150.5 3.105469 150.535156 0.773438 150.554688 L 0.773438 149.753906 C 3.101562 149.730469 5.425781 149.699219 7.75 149.644531 C 28.800781 149.160156 54.691406 145.800781 82.617188 139.921875 Z M 82.617188 139.921875 " fill-opacity="1" fill-rule="nonzero"/></g><g clip-path="url(#22d0861d2a)"><path fill="#9fc1b1" d="M 86.285156 149.273438 C 117.238281 142.796875 148.949219 133.578125 177.992188 122.613281 C 211.296875 110.03125 240.59375 95.464844 265.066406 79.308594 C 292.867188 60.957031 313.867188 40.867188 327.488281 19.601562 C 349.6875 -15.058594 352.234375 -52.683594 335.054688 -92.230469 C 326.851562 -111.117188 314.082031 -129.019531 296.011719 -146.953125 C 291.605469 -151.328125 287.042969 -155.546875 282.390625 -159.636719 C 283.238281 -159.222656 284.085938 -158.8125 284.933594 -158.402344 C 288.894531 -154.871094 292.777344 -151.238281 296.550781 -147.496094 C 314.6875 -129.488281 327.511719 -111.511719 335.757812 -92.535156 C 353.042969 -52.742188 350.476562 -14.875 328.128906 20.015625 C 314.449219 41.367188 293.375 61.53125 265.488281 79.945312 C 240.96875 96.128906 211.621094 110.726562 178.257812 123.324219 C 149.183594 134.304688 117.433594 143.535156 86.441406 150.019531 C 57.902344 155.988281 31.476562 159.390625 10.015625 159.855469 C 6.941406 159.921875 3.859375 159.957031 0.773438 159.96875 L 0.773438 159.207031 C 3.851562 159.195312 6.929688 159.160156 10 159.09375 C 31.414062 158.632812 57.792969 155.238281 86.285156 149.277344 Z M 86.285156 149.273438 " fill-opacity="1" fill-rule="nonzero"/></g><g clip-path="url(#d85beca539)"><path fill="#9fc1b1" d="M 89.957031 158.625 C 121.539062 152.058594 153.894531 142.699219 183.53125 131.554688 C 217.539062 118.765625 247.4375 103.949219 272.398438 87.515625 C 300.769531 68.839844 322.175781 48.390625 336.023438 26.738281 C 358.523438 -8.4375 361.023438 -46.628906 343.457031 -86.773438 C 331.238281 -114.699219 310.226562 -137.578125 287.3125 -157.238281 C 288.164062 -156.820312 289.015625 -156.398438 289.867188 -155.980469 C 312.035156 -136.667969 332.214844 -114.257812 344.117188 -87.058594 C 361.785156 -46.683594 359.265625 -8.265625 336.628906 27.125 C 322.726562 48.863281 301.25 69.382812 272.796875 88.117188 C 247.789062 104.582031 217.839844 119.421875 183.785156 132.230469 C 154.117188 143.382812 121.722656 152.757812 90.105469 159.332031 C 61.417969 165.296875 33.769531 168.824219 12.261719 169.261719 C 8.441406 169.335938 4.609375 169.371094 0.773438 169.367188 L 0.773438 168.648438 C 4.605469 168.65625 8.429688 168.621094 12.25 168.542969 C 33.714844 168.109375 61.3125 164.585938 89.957031 158.628906 Z M 89.957031 158.625 " fill-opacity="1" fill-rule="nonzero"/></g><g clip-path="url(#6e4810e270)"><path fill="#9fc1b1" d="M 14.496094 177.988281 C 36.320312 177.570312 64.425781 174.015625 93.632812 167.976562 C 125.839844 161.320312 158.84375 151.816406 189.070312 140.496094 C 223.78125 127.5 254.285156 112.433594 279.738281 95.722656 C 308.679688 76.71875 330.488281 55.910156 344.5625 33.871094 C 367.355469 -1.820312 369.808594 -40.574219 351.859375 -81.3125 C 343.472656 -100.339844 330.585938 -118.355469 312.457031 -136.390625 C 305.953125 -142.859375 299.070312 -149.027344 292.105469 -154.867188 C 292.964844 -154.441406 293.820312 -154.011719 294.679688 -153.582031 C 300.925781 -148.269531 307.078125 -142.691406 312.929688 -136.871094 C 331.121094 -118.773438 344.054688 -100.691406 352.476562 -81.585938 C 370.523438 -40.625 368.054688 -1.660156 345.132812 34.234375 C 331.007812 56.355469 309.128906 77.230469 280.109375 96.285156 C 254.613281 113.027344 224.0625 128.113281 189.308594 141.128906 C 159.046875 152.460938 126.007812 161.976562 93.765625 168.640625 C 64.519531 174.6875 36.371094 178.246094 14.507812 178.664062 C 9.941406 178.753906 5.359375 178.777344 0.769531 178.746094 L 0.769531 178.070312 C 5.355469 178.101562 9.929688 178.078125 14.496094 177.988281 Z M 14.496094 177.988281 " fill-opacity="1" fill-rule="nonzero"/></g><g clip-path="url(#4e79d0e18f)"><path fill="#9fc1b1" d="M 16.746094 187.433594 C 38.925781 187.039062 67.535156 183.449219 97.304688 177.328125 C 130.144531 170.578125 163.792969 160.929688 194.617188 149.433594 C 230.027344 136.226562 261.136719 120.914062 287.082031 103.921875 C 316.59375 84.59375 338.804688 63.421875 353.105469 40.996094 C 376.191406 4.792969 378.601562 -34.523438 360.257812 -75.855469 C 351.785156 -94.953125 338.835938 -113.027344 320.675781 -131.109375 C 313.070312 -138.683594 304.996094 -145.8125 296.894531 -152.46875 C 297.753906 -152.03125 298.613281 -151.597656 299.472656 -151.160156 C 306.855469 -145.011719 314.183594 -138.472656 321.125 -131.558594 C 339.34375 -113.417969 352.332031 -95.28125 360.839844 -76.113281 C 379.273438 -34.574219 376.851562 4.941406 353.644531 41.335938 C 339.296875 63.839844 317.019531 85.074219 287.429688 104.449219 C 261.445312 121.46875 230.296875 136.804688 194.839844 150.023438 C 163.984375 161.53125 130.304688 171.1875 97.433594 177.949219 C 67.625 184.074219 38.976562 187.667969 16.757812 188.066406 C 11.445312 188.160156 6.113281 188.175781 0.773438 188.117188 L 0.773438 187.480469 C 6.109375 187.542969 11.433594 187.527344 16.746094 187.433594 Z M 16.746094 187.433594 " fill-opacity="1" fill-rule="nonzero"/></g><g clip-path="url(#dad4ed151a)"><path fill="#9fc1b1" d="M 18.996094 196.882812 C 41.53125 196.507812 70.648438 192.882812 100.980469 186.679688 C 134.449219 179.832031 168.746094 170.046875 200.167969 158.371094 C 236.28125 144.953125 267.996094 129.394531 294.429688 112.121094 C 324.515625 92.46875 347.132812 70.9375 361.65625 48.125 C 385.035156 11.40625 387.394531 -28.472656 368.660156 -70.394531 C 360.09375 -89.5625 347.089844 -107.695312 328.898438 -125.824219 C 320.160156 -134.535156 310.859375 -142.617188 301.628906 -150.054688 C 302.488281 -149.613281 303.347656 -149.171875 304.203125 -148.726562 C 312.722656 -141.773438 321.257812 -134.277344 329.316406 -126.242188 C 347.558594 -108.058594 360.605469 -89.867188 369.199219 -70.632812 C 388.015625 -28.515625 385.644531 11.546875 362.15625 48.445312 C 347.585938 71.328125 324.90625 92.921875 294.753906 112.621094 C 268.28125 129.917969 236.527344 145.496094 200.371094 158.929688 C 168.921875 170.613281 134.59375 180.410156 101.09375 187.261719 C 70.730469 193.46875 41.574219 197.097656 19 197.476562 C 12.941406 197.578125 6.863281 197.574219 0.769531 197.476562 L 0.769531 196.882812 C 6.859375 196.980469 12.9375 196.984375 18.992188 196.882812 Z M 18.996094 196.882812 " fill-opacity="1" fill-rule="nonzero"/></g><g clip-path="url(#a5bbfe90c5)"><path fill="#9fc1b1" d="M 21.242188 206.328125 C 44.136719 205.972656 73.757812 202.316406 104.652344 196.03125 C 138.753906 189.09375 173.699219 179.164062 205.71875 167.3125 C 242.535156 153.683594 274.855469 137.875 301.785156 120.324219 C 332.441406 100.34375 355.460938 78.449219 370.207031 55.25 C 393.878906 18.015625 396.183594 -22.417969 377.0625 -64.933594 C 362.089844 -98.21875 335.414062 -124.597656 306.222656 -147.679688 C 307.085938 -147.230469 307.941406 -146.78125 308.800781 -146.332031 C 337.167969 -123.628906 362.929688 -97.695312 377.5625 -65.15625 C 396.765625 -22.464844 394.449219 18.144531 370.671875 55.546875 C 355.882812 78.8125 332.808594 100.757812 302.085938 120.785156 C 275.121094 138.359375 242.765625 154.183594 205.910156 167.828125 C 173.867188 179.6875 138.890625 189.628906 104.765625 196.570312 C 73.835938 202.863281 44.179688 206.523438 21.253906 206.878906 C 14.445312 206.984375 7.617188 206.96875 0.773438 206.824219 L 0.773438 206.277344 C 7.617188 206.417969 14.441406 206.4375 21.246094 206.332031 Z M 21.242188 206.328125 " fill-opacity="1" fill-rule="nonzero"/></g><g clip-path="url(#28ce728c52)"><path fill="#9fc1b1" d="M 23.492188 215.777344 C 46.742188 215.4375 76.871094 211.746094 108.332031 205.378906 C 143.0625 198.347656 178.660156 188.273438 211.273438 176.246094 C 248.796875 162.40625 281.722656 146.347656 309.144531 128.519531 C 340.371094 108.210938 363.796875 85.957031 378.765625 62.371094 C 402.726562 24.621094 404.980469 -16.371094 385.464844 -59.472656 C 369.671875 -94.355469 341.410156 -121.539062 310.875 -145.238281 C 311.734375 -144.78125 312.59375 -144.324219 313.449219 -143.867188 C 343.167969 -120.542969 370.480469 -93.792969 385.925781 -59.679688 C 405.515625 -16.414062 403.25 24.746094 379.195312 62.648438 C 364.183594 86.292969 340.710938 108.597656 309.417969 128.945312 C 281.96875 146.796875 249.007812 162.871094 211.449219 176.722656 C 178.808594 188.761719 143.1875 198.84375 108.429688 205.878906 C 76.941406 212.253906 46.777344 215.949219 23.5 216.289062 C 15.945312 216.398438 8.371094 216.351562 0.773438 216.164062 L 0.773438 215.65625 C 8.367188 215.847656 15.941406 215.890625 23.492188 215.78125 Z M 23.492188 215.777344 " fill-opacity="1" fill-rule="nonzero"/></g><g clip-path="url(#fa962c4cac)"><path fill="#9fc1b1" d="M 25.738281 225.222656 C 49.382812 224.859375 80.035156 221.097656 112.058594 214.628906 C 147.460938 207.480469 183.730469 197.246094 216.941406 185.035156 C 255.195312 170.96875 288.742188 154.65625 316.644531 136.546875 C 348.449219 115.902344 372.265625 93.277344 387.425781 69.296875 C 411.585938 31.101562 413.75 -10.386719 393.867188 -54.015625 C 385.03125 -73.402344 371.851562 -91.710938 353.574219 -109.980469 C 341.261719 -122.289062 327.789062 -133.378906 315.445312 -142.808594 C 316.300781 -142.347656 317.152344 -141.890625 318.003906 -141.425781 C 329.730469 -132.375 342.324219 -121.878906 353.898438 -110.308594 C 372.21875 -91.996094 385.433594 -73.644531 394.292969 -54.207031 C 414.246094 -10.429688 412.066406 31.210938 387.820312 69.550781 C 372.621094 93.585938 348.757812 116.257812 316.898438 136.9375 C 288.964844 155.066406 255.390625 171.394531 217.105469 185.46875 C 183.871094 197.6875 147.578125 207.929688 112.152344 215.085938 C 80.101562 221.558594 49.417969 225.324219 25.75 225.6875 C 17.449219 225.785156 9.125 225.699219 0.777344 225.445312 L 0.777344 224.980469 C 9.121094 225.234375 17.445312 225.316406 25.742188 225.222656 Z M 25.738281 225.222656 " fill-opacity="1" fill-rule="nonzero"/></g><g clip-path="url(#9c428b4eb5)"><path fill="#9fc1b1" d="M 27.988281 234.671875 C 51.980469 234.332031 83.140625 230.539062 115.730469 223.988281 C 151.765625 216.746094 188.683594 206.367188 222.496094 193.980469 C 261.449219 179.707031 295.601562 163.144531 324 144.753906 C 356.375 123.785156 380.59375 100.800781 395.980469 76.433594 C 420.4375 37.71875 422.546875 -4.335938 402.265625 -48.554688 C 393.34375 -68.015625 380.105469 -86.378906 361.792969 -104.695312 C 350.289062 -116.203125 337.058594 -127.5 319.925781 -140.378906 C 320.773438 -139.917969 321.625 -139.453125 322.472656 -138.984375 C 338.519531 -126.804688 351.09375 -115.996094 362.09375 -104.992188 C 380.4375 -86.640625 393.707031 -68.234375 402.652344 -48.730469 C 422.996094 -4.371094 420.875 37.816406 396.339844 76.660156 C 380.917969 101.078125 356.65625 124.105469 324.230469 145.109375 C 295.808594 163.515625 261.628906 180.09375 222.640625 194.378906 C 188.808594 206.773438 151.871094 217.15625 115.816406 224.402344 C 83.203125 230.960938 52.011719 234.757812 27.996094 235.09375 C 18.953125 235.191406 9.875 235.082031 0.773438 234.765625 L 0.773438 234.34375 C 9.875 234.65625 18.949219 234.769531 27.988281 234.671875 Z M 27.988281 234.671875 " fill-opacity="1" fill-rule="nonzero"/></g><g clip-path="url(#100aeebebb)"><path fill="#9fc1b1" d="M 30.238281 244.121094 C 54.582031 243.804688 86.25 239.980469 119.410156 233.34375 C 156.070312 226.011719 193.640625 215.492188 228.050781 202.925781 C 267.714844 188.441406 302.472656 171.628906 331.363281 152.957031 C 364.3125 131.664062 388.933594 108.316406 404.542969 83.566406 C 429.292969 44.332031 431.351562 1.714844 410.667969 -43.097656 C 401.652344 -62.628906 388.355469 -81.050781 370.015625 -99.417969 C 357.621094 -111.828125 343.3125 -123.925781 324.433594 -137.90625 C 325.277344 -137.4375 326.121094 -136.96875 326.960938 -136.5 C 344.722656 -123.226562 358.382812 -111.601562 370.285156 -99.683594 C 388.65625 -81.285156 401.976562 -62.828125 411.011719 -43.253906 C 431.753906 1.679688 429.6875 44.417969 404.863281 83.769531 C 389.222656 108.566406 364.5625 131.949219 331.566406 153.277344 C 302.652344 171.964844 267.867188 188.789062 228.179688 203.28125 C 193.75 215.855469 156.164062 226.378906 119.484375 233.71875 C 86.304688 240.355469 54.609375 244.183594 30.238281 244.5 C 20.453125 244.59375 10.625 244.453125 0.773438 244.074219 L 0.773438 243.695312 C 10.625 244.070312 20.449219 244.214844 30.238281 244.121094 Z M 30.238281 244.121094 " fill-opacity="1" fill-rule="nonzero"/></g><g clip-path="url(#882bb805c9)"><path fill="#9fc1b1" d="M 32.484375 253.566406 C 57.183594 253.273438 89.359375 249.417969 123.082031 242.703125 C 160.375 235.277344 198.59375 224.613281 233.609375 211.867188 C 273.976562 197.171875 309.34375 180.113281 338.726562 161.160156 C 372.25 139.535156 397.277344 115.828125 413.109375 90.691406 C 438.148438 50.9375 440.15625 7.761719 419.070312 -37.640625 C 399.734375 -79.269531 363.246094 -110.371094 328.9375 -135.390625 C 329.773438 -134.921875 330.605469 -134.449219 331.441406 -133.976562 C 365.105469 -109.222656 400.441406 -78.550781 419.375 -37.78125 C 440.511719 7.730469 438.5 51.015625 413.394531 90.871094 C 397.535156 116.050781 372.472656 139.792969 338.910156 161.441406 C 309.503906 180.410156 274.113281 197.480469 233.726562 212.183594 C 198.695312 224.9375 160.460938 235.605469 123.148438 243.03125 C 89.40625 249.753906 57.207031 253.613281 32.488281 253.902344 C 21.953125 253.996094 11.378906 253.824219 0.773438 253.378906 L 0.773438 253.042969 C 11.378906 253.484375 21.953125 253.660156 32.484375 253.5625 Z M 32.484375 253.566406 " fill-opacity="1" fill-rule="nonzero"/></g><g clip-path="url(#dcec392e21)"><path fill="#9fc1b1" d="M 34.734375 263.015625 C 59.785156 262.746094 92.46875 258.855469 126.761719 252.058594 C 164.683594 244.542969 203.554688 233.734375 239.171875 220.808594 C 280.246094 205.90625 316.222656 188.59375 346.097656 169.359375 C 380.195312 147.410156 405.621094 123.339844 421.675781 97.820312 C 447.011719 57.546875 448.960938 13.808594 427.46875 -32.179688 C 418.273438 -51.859375 404.859375 -70.394531 386.464844 -88.851562 C 372.5 -102.859375 355.597656 -116.878906 333.402344 -132.859375 C 334.21875 -132.394531 335.039062 -131.921875 335.855469 -131.453125 C 356.949219 -116.140625 373.179688 -102.597656 386.675781 -89.0625 C 405.097656 -70.582031 418.527344 -52.015625 427.738281 -32.304688 C 449.273438 13.78125 447.320312 57.613281 421.925781 97.976562 C 405.851562 123.535156 380.390625 147.632812 346.257812 169.609375 C 316.359375 188.855469 280.367188 206.171875 239.273438 221.089844 C 203.644531 234.019531 164.757812 244.828125 126.820312 252.351562 C 92.507812 259.152344 59.804688 263.042969 34.734375 263.308594 C 33 263.324219 31.273438 263.332031 29.535156 263.332031 C 19.976562 263.332031 10.386719 263.113281 0.773438 262.675781 L 0.773438 262.378906 C 12.128906 262.894531 23.457031 263.109375 34.734375 263.015625 Z M 34.734375 263.015625 " fill-opacity="1" fill-rule="nonzero"/></g><g clip-path="url(#403d93dccf)"><path fill="#9fc1b1" d="M 36.980469 272.460938 C 62.386719 272.21875 95.578125 268.296875 130.441406 261.414062 C 168.996094 253.804688 208.519531 242.855469 244.738281 229.75 C 286.515625 214.632812 323.101562 197.070312 353.472656 177.558594 C 388.140625 155.28125 413.972656 130.847656 430.25 104.941406 C 455.875 64.152344 457.765625 19.855469 435.871094 -26.71875 C 426.585938 -46.472656 413.113281 -65.070312 394.6875 -83.570312 C 380.226562 -98.09375 362.738281 -112.535156 339.65625 -129.019531 C 339.066406 -129.4375 338.476562 -129.859375 337.886719 -130.277344 C 338.691406 -129.808594 339.496094 -129.339844 340.300781 -128.867188 C 363.148438 -112.523438 380.5 -98.175781 394.867188 -83.75 C 413.3125 -65.226562 426.804688 -46.609375 436.101562 -26.828125 C 458.035156 19.828125 456.140625 64.207031 430.464844 105.078125 C 414.171875 131.015625 388.3125 155.472656 353.609375 177.769531 C 323.222656 197.292969 286.621094 214.863281 244.824219 229.988281 C 208.59375 243.097656 169.058594 254.050781 130.492188 261.664062 C 95.613281 268.546875 62.40625 272.472656 36.984375 272.714844 C 24.960938 272.804688 12.882812 272.550781 0.773438 271.964844 L 0.773438 271.710938 C 12.882812 272.296875 24.957031 272.550781 36.980469 272.460938 Z M 36.980469 272.460938 " fill-opacity="1" fill-rule="nonzero"/></g><g clip-path="url(#93bf58844b)"><path fill="#9fc1b1" d="M 39.230469 281.910156 C 64.988281 281.691406 98.6875 277.734375 134.121094 270.769531 C 173.308594 263.070312 213.484375 251.976562 250.308594 238.6875 C 292.796875 223.359375 329.988281 205.546875 360.855469 185.753906 C 396.097656 163.148438 422.332031 138.355469 438.828125 112.0625 C 464.742188 70.753906 466.574219 25.898438 444.273438 -21.261719 C 434.894531 -41.089844 421.367188 -59.746094 402.910156 -78.289062 C 388.332031 -92.941406 370.792969 -107.425781 347.722656 -123.875 C 345.9375 -125.148438 344.140625 -126.414062 342.332031 -127.671875 C 343.136719 -127.199219 343.9375 -126.722656 344.738281 -126.246094 C 345.777344 -125.515625 346.8125 -124.785156 347.847656 -124.046875 C 370.925781 -107.589844 388.46875 -93.101562 403.058594 -78.4375 C 421.53125 -59.875 435.074219 -41.203125 444.460938 -21.351562 C 466.796875 25.878906 464.960938 70.800781 439.003906 112.175781 C 422.492188 138.492188 396.238281 163.308594 360.964844 185.929688 C 330.085938 205.734375 292.878906 223.554688 250.375 238.886719 C 213.542969 252.179688 173.355469 263.277344 134.160156 270.980469 C 98.710938 277.945312 64.996094 281.902344 39.226562 282.121094 C 37.753906 282.128906 36.285156 282.136719 34.804688 282.136719 C 23.5 282.136719 12.148438 281.839844 0.769531 281.25 L 0.769531 281.039062 C 13.632812 281.703125 26.457031 281.996094 39.226562 281.910156 Z M 39.230469 281.910156 " fill-opacity="1" fill-rule="nonzero"/></g><g clip-path="url(#c9b4fef6e4)"><path fill="#9fc1b1" d="M 41.476562 291.355469 C 67.585938 291.160156 101.796875 287.171875 137.800781 280.125 C 177.617188 272.332031 218.449219 261.09375 255.878906 247.625 C 299.074219 232.082031 336.875 214.023438 368.238281 193.945312 C 404.054688 171.011719 430.691406 145.855469 447.40625 119.179688 C 473.609375 77.355469 475.382812 31.941406 452.671875 -15.804688 C 443.21875 -35.683594 429.625 -54.390625 411.117188 -72.988281 C 396.496094 -87.679688 378.914062 -102.214844 355.792969 -118.730469 C 352.707031 -120.921875 349.59375 -123.082031 346.453125 -125.226562 C 347.277344 -124.730469 348.101562 -124.234375 348.921875 -123.738281 C 351.261719 -122.128906 353.585938 -120.507812 355.890625 -118.867188 C 379.019531 -102.34375 396.605469 -87.804688 411.238281 -73.105469 C 429.757812 -54.492188 443.363281 -35.773438 452.828125 -15.875 C 475.5625 31.921875 473.789062 77.390625 447.550781 119.269531 C 430.824219 145.96875 404.167969 171.140625 368.328125 194.085938 C 336.957031 214.171875 299.144531 232.238281 255.9375 247.785156 C 218.5 261.257812 177.664062 272.496094 137.835938 280.292969 C 101.820312 287.34375 67.597656 291.332031 41.480469 291.527344 C 27.96875 291.609375 14.390625 291.269531 0.773438 290.523438 L 0.773438 290.355469 C 14.390625 291.101562 27.96875 291.4375 41.480469 291.355469 Z M 41.476562 291.355469 " fill-opacity="1" fill-rule="nonzero"/></g><g clip-path="url(#40982f7501)"><path fill="#9fc1b1" d="M 43.726562 300.804688 C 70.1875 300.632812 104.90625 296.613281 141.484375 289.480469 C 181.9375 281.59375 223.421875 270.210938 261.453125 256.5625 C 305.359375 240.808594 343.769531 222.496094 375.625 202.136719 C 412.019531 178.875 439.058594 153.359375 455.992188 126.292969 C 468.675781 106.019531 475.753906 84.675781 477.03125 62.851562 C 477.703125 51.296875 476.757812 39.394531 474.21875 27.472656 C 471.585938 15.101562 467.160156 2.378906 461.074219 -10.34375 C 451.523438 -30.308594 437.875 -49.070312 419.34375 -67.710938 C 404.585938 -82.554688 386.957031 -97.132812 363.859375 -113.585938 C 359.523438 -116.660156 355.132812 -119.683594 350.683594 -122.671875 C 351.503906 -122.167969 352.328125 -121.664062 353.152344 -121.160156 C 356.78125 -118.699219 360.375 -116.210938 363.933594 -113.691406 C 387.039062 -97.230469 404.671875 -82.648438 419.433594 -67.800781 C 437.972656 -49.148438 451.632812 -30.375 461.1875 -10.398438 C 467.28125 2.332031 471.707031 15.066406 474.34375 27.445312 C 476.882812 39.378906 477.832031 51.292969 477.15625 62.859375 C 475.878906 84.703125 468.796875 106.066406 456.097656 126.363281 C 439.15625 153.441406 412.101562 178.972656 375.695312 202.242188 C 343.828125 222.609375 305.410156 240.925781 261.496094 256.683594 C 223.457031 270.335938 181.964844 281.71875 141.507812 289.605469 C 104.921875 296.738281 70.195312 300.761719 43.726562 300.929688 C 29.46875 301.007812 15.140625 300.625 0.773438 299.792969 L 0.773438 299.664062 C 15.140625 300.5 29.46875 300.878906 43.726562 300.804688 Z M 43.726562 300.804688 " fill-opacity="1" fill-rule="nonzero"/></g><g clip-path="url(#7342f22536)"><path fill="#9fc1b1" d="M 45.972656 310.25 C 72.785156 310.105469 108.015625 306.050781 145.167969 298.835938 C 186.253906 290.855469 228.394531 279.328125 267.03125 265.5 C 288.367188 257.863281 308.726562 249.496094 327.542969 240.636719 C 347.730469 231.128906 366.398438 220.933594 383.019531 210.324219 C 419.984375 186.738281 447.425781 160.859375 464.578125 133.40625 C 470.851562 123.363281 475.8125 112.976562 479.324219 102.53125 C 482.976562 91.664062 485.148438 80.445312 485.785156 69.191406 C 486.449219 57.496094 485.46875 45.449219 482.871094 33.386719 C 480.175781 20.867188 475.667969 7.992188 469.472656 -4.886719 C 464.496094 -15.230469 458.269531 -25.488281 450.96875 -35.371094 C 444.253906 -44.457031 436.382812 -53.5625 427.570312 -62.433594 C 412.683594 -77.425781 395.003906 -92.046875 371.929688 -108.441406 C 366.359375 -112.386719 360.703125 -116.25 354.941406 -120.054688 C 355.765625 -119.542969 356.585938 -119.03125 357.410156 -118.519531 C 362.335938 -115.234375 367.1875 -111.902344 371.976562 -108.511719 C 395.054688 -92.109375 412.742188 -77.488281 427.632812 -62.492188 C 436.445312 -53.617188 444.320312 -44.511719 451.035156 -35.421875 C 458.339844 -25.53125 464.570312 -15.269531 469.550781 -4.921875 C 475.75 7.960938 480.257812 20.84375 482.957031 33.367188 C 485.554688 45.441406 486.535156 57.496094 485.875 69.195312 C 485.234375 80.457031 483.058594 91.679688 479.40625 102.558594 C 475.894531 113.007812 470.933594 123.402344 464.652344 133.453125 C 447.492188 160.914062 420.046875 186.800781 383.066406 210.398438 C 366.441406 221.003906 347.773438 231.207031 327.582031 240.714844 C 308.761719 249.574219 288.398438 257.941406 267.0625 265.578125 C 228.417969 279.410156 186.273438 290.941406 145.183594 298.921875 C 108.027344 306.136719 72.792969 310.191406 45.976562 310.339844 C 30.976562 310.410156 15.894531 309.984375 0.773438 309.0625 L 0.773438 308.976562 C 15.894531 309.898438 30.976562 310.324219 45.976562 310.253906 Z M 45.972656 310.25 " fill-opacity="1" fill-rule="nonzero"/></g><g clip-path="url(#37172c1cb7)"><path fill="#9fc1b1" d="M 48.21875 319.699219 C 61.59375 319.640625 76.941406 318.640625 93.84375 316.726562 C 111.222656 314.757812 129.746094 311.882812 148.902344 308.175781 C 190.648438 300.089844 233.472656 288.402344 272.75 274.375 C 294.433594 266.628906 315.125 258.144531 334.25 249.15625 C 354.769531 239.511719 373.730469 229.167969 390.613281 218.410156 C 428.167969 194.472656 456.007812 168.222656 473.351562 140.378906 C 479.679688 130.21875 484.675781 119.714844 488.199219 109.152344 C 491.863281 98.160156 494.035156 86.820312 494.644531 75.445312 C 494.957031 69.589844 494.863281 63.605469 494.367188 57.65625 C 493.859375 51.597656 492.921875 45.402344 491.574219 39.25 C 490.199219 32.980469 488.367188 26.578125 486.121094 20.222656 C 483.835938 13.75 481.0625 7.136719 477.875 0.574219 C 472.871094 -9.808594 466.621094 -20.097656 459.292969 -30.011719 C 452.554688 -39.132812 444.660156 -48.269531 435.824219 -57.171875 C 427.765625 -65.285156 418.964844 -73.21875 408.910156 -81.421875 C 400.25 -88.492188 390.789062 -95.644531 379.996094 -103.296875 C 373.148438 -108.140625 366.058594 -112.941406 358.804688 -117.644531 C 359.621094 -117.132812 360.4375 -116.621094 361.25 -116.101562 C 367.660156 -111.902344 373.9375 -107.636719 380.019531 -103.332031 C 390.8125 -95.683594 400.273438 -88.527344 408.9375 -81.457031 C 418.988281 -73.25 427.792969 -65.316406 435.855469 -57.203125 C 444.691406 -48.300781 452.585938 -39.164062 459.328125 -30.039062 C 466.65625 -20.121094 472.90625 -9.828125 477.910156 0.554688 C 481.101562 7.121094 483.875 13.730469 486.160156 20.207031 C 488.40625 26.566406 490.238281 32.96875 491.613281 39.238281 C 492.960938 45.390625 493.902344 51.585938 494.40625 57.652344 C 494.90625 63.601562 494.996094 69.585938 494.683594 75.445312 C 494.074219 86.824219 491.902344 98.167969 488.238281 109.164062 C 484.710938 119.726562 479.71875 130.234375 473.386719 140.398438 C 456.039062 168.246094 428.195312 194.503906 390.636719 218.441406 C 373.753906 229.199219 354.789062 239.546875 334.269531 249.191406 C 315.144531 258.183594 294.453125 266.667969 272.761719 274.414062 C 252.527344 281.644531 231.328125 288.261719 209.761719 294.09375 C 189.515625 299.566406 169.042969 304.316406 148.910156 308.214844 C 129.753906 311.925781 111.226562 314.804688 93.847656 316.769531 C 76.945312 318.683594 61.59375 319.683594 48.21875 319.742188 C 32.558594 319.808594 16.6875 319.324219 0.769531 318.3125 L 0.769531 318.269531 C 15.738281 319.222656 30.660156 319.710938 45.414062 319.710938 C 46.347656 319.710938 47.285156 319.707031 48.21875 319.703125 Z M 48.21875 319.699219 " fill-opacity="1" fill-rule="nonzero"/></g></g></g></g></g></svg>